<svg xmlns="http://www.w3.org/2000/svg" width="21.4" height="13.4" viewBox="0 0 21.4 13.4">
  <title>Risorsa 12icon10</title>
  <g id="Livello_2" data-name="Livello 2">
    <g id="Livello_1-2" data-name="Livello 1">
      <path d="M21.4,6.7C15.9,15.3,6,15.9,0,6.9,4.9-1.4,14.9-3.1,21.4,6.7ZM15.6,3.4c-.5,4.3-2,6-4.8,6.1a4.7,4.7,0,0,1-3.1-.9C6.1,7.3,6,5.4,5.8,3.4A10.5,10.5,0,0,0,2.2,6.7c5.3,7.1,12.8,6.1,16.9-.2A13.4,13.4,0,0,0,15.6,3.4ZM10.5,7.6a2.7,2.7,0,0,0,3.1-2.7,3,3,0,0,0-3-3.1A2.9,2.9,0,0,0,7.8,4.6,2.6,2.6,0,0,0,10.5,7.6Z" style="fill: #050405"/>
    </g>
  </g>
</svg>
