<svg
                xmlns="http://www.w3.org/2000/svg"
                width="20"
                height="20"
                viewBox="0 0 34.1 34.2">
                <title>Risorsa 1iconparty</title>
                <g id="Livello_2" data-name="Livello 2">
                  <g id="Livello_1-2" data-name="Livello 1">
                    <g>
                      <path
                        d="M26.5,25.4l-25,8.8C-.2,33-.3,33,.4,31.1c2-6,4.1-11.9,6.2-17.9.7-1.9,1.5-3.9,2.1-5.6Zm-7.4-5.6-.2-.5-.3.3.5.2a18,18,0,0,0,2,6.2c.9-1,2.1-.6,2.8-1.7C22.4,22.8,21.1,20.9,19.1,19.8ZM9.7,10a3.9,3.9,0,0,0-.4,4l4.1,12.3c.2.6.2,1.4,1.2,1.7s3.1-.8,4.7-1.9l-3.2-9.3a3.6,3.6,0,0,0-1-1.4C13.4,13.6,11.6,11.9,9.7,10ZM8,14.8c-2.3,4.5-4,8.7-1.5,13.4a15.7,15.7,0,0,1,.9,2.3c1.7-.6,3.6-.9,5.1-2.1Zm-2.1,16c-.8-1.6-.8-3.4-2.1-5L1.5,32.5A13,13,0,0,0,5.9,30.8Z" />
                      <path
                        d="M34,9v1.4l-.5.3c-2.1,0-3,1-3.4,3S28.3,18,25.8,18c-.4,0-.6-.1-.7-.4s0-.7.3-.8c2.1-.4,3.1-1.6,3.4-3.9S30.5,9.5,34,9Z" />
                      <path
                        d="M23.3,0h1.5c.1.3.2.4.2.6-.3,2.7-1.6,4.5-4.4,4.7a3.6,3.6,0,0,0-3.2,2.3c-.2.5.1,1.1-.7,1.3S16,8.6,16,8a4.2,4.2,0,0,1,4-4.1C22.3,3.6,23.5,2.6,23.3,0Z" />
                      <path
                        d="M33,3.8a2.6,2.6,0,0,1-2.6,3A2.7,2.7,0,0,1,27.3,4a2.8,2.8,0,0,1,2.9-3A2.7,2.7,0,0,1,33,3.8ZM30.2,2.4a1.5,1.5,0,0,0-1.5,1.5,1.5,1.5,0,0,0,3,0A1.5,1.5,0,0,0,30.2,2.4Z" />
                      <path
                        d="M21.1,13.9l-.7-.7c-.1-.9,4-4.7,5.6-5.4C26,9.4,26,9.4,21.1,13.9Z" />
                      <path
                        d="M28.4,22.7a1.2,1.2,0,0,1-.4-1.1c3.5-2,3.9-2.1,5.3-1A13.3,13.3,0,0,1,28.4,22.7Z" />
                      <path
                        d="M11.2,5.5,13.3.8c1.2,1,1.2,1-.6,5.2A1.2,1.2,0,0,1,11.2,5.5Z" />
                      <path d="M19.1,19.8l-.5-.2.3-.3.2.5Z" />
                    </g>
                  </g>
                </g>
              </svg>