<svg xmlns="http://www.w3.org/2000/svg" width="23.2" height="23.4" viewBox="0 0 23.2 23.4">
  <title>Risorsa 11icon9</title>
  <g id="Livello_2" data-name="Livello 2">
    <g id="Livello_1-2" data-name="Livello 1">
      <path d="M8.8,8.7l4.4-2.3c.6-.6.3-1.4.5-2.1A5.1,5.1,0,0,1,18,0a5,5,0,0,1,4.8,3,4.5,4.5,0,0,1-1.2,5.4,4.7,4.7,0,0,1-5.8.5l-1.3-1L9.8,10.2A4.4,4.4,0,0,0,9.6,13l4.8,2.4,2-1.1a4.7,4.7,0,0,1,6.5,2.5,4.8,4.8,0,0,1-3,6.3,4.6,4.6,0,0,1-6-3.3,11,11,0,0,1-.4-2.7L9.2,14.9c-1.1,0-1.6.8-2.3,1.1A5,5,0,0,1,1,14.6,4.8,4.8,0,0,1,1,8.8,4.9,4.9,0,0,1,6.9,7.5,10,10,0,0,1,8.8,8.7ZM21.3,4.8a3,3,0,0,0-3-3,3.1,3.1,0,0,0-2.8,3,2.9,2.9,0,0,0,2.9,3A2.7,2.7,0,0,0,21.3,4.8Zm-3,10.8a3.1,3.1,0,0,0-2.9,2.8,3.4,3.4,0,0,0,2.9,3.2,3,3,0,0,0,3-3.1A2.8,2.8,0,0,0,18.3,15.6Zm-10.6-4A3,3,0,0,0,4.6,8.7a3,3,0,0,0,.3,6A2.8,2.8,0,0,0,7.7,11.6Z" style="fill: #040303"/>
    </g>
  </g>
</svg>
