<svg xmlns="http://www.w3.org/2000/svg" class="native-toast-icon-" viewBox="0 0 560 560">
  <title>Risorsa 1check</title>
  <g id="Livello_2" data-name="Livello 2">
    <g id="Livello_1-2" data-name="Livello 1">
      <circle cx="280" cy="280" r="260.8" style="fill: #fff"/>
      <g>
        <path d="M233.3,396.7a23.3,23.3,0,0,1-16.5-6.9l-93.3-93.3a23.3,23.3,0,0,1,33-33l76.8,76.8L403.5,170.2h0a23.3,23.3,0,0,1,33,33L249.8,389.9h0a23.5,23.5,0,0,1-16.5,6.8Z"/>
        <path d="M280,560a280.3,280.3,0,1,1,197.9-82.1A280,280,0,0,1,280,560Zm0-513.3a233.5,233.5,0,1,0,164.9,68.4A233.6,233.6,0,0,0,280,46.7Z"/>
      </g>
    </g>
  </g>
</svg>