<svg xmlns="http://www.w3.org/2000/svg" width="33.6" height="30.2" viewBox="0 0 33.6 30.2">
  <title>Risorsa 3iconhands</title>
  <g id="Livello_2" data-name="Livello 2">
    <g id="Livello_1-2" data-name="Livello 1">
      <g>
        <path d="M18.7,26.9l-2.8-3a3.2,3.2,0,0,1,1.8-1.8c1.7.9,2.7,2.8,4.3,3.8a2.8,2.8,0,0,0,1.6-1.3l-4.1-4.3a2.5,2.5,0,0,1,1.9-1.7c1.7.8,2.6,2.6,4.3,3.7a2.8,2.8,0,0,0-.7-3.6l-5.5-5.2a4,4,0,0,1,1.8-2.3l6.4,6.2a4.6,4.6,0,0,1,.7,5.8c-1.9,2.9-4,5.5-7.6,6.5a8.5,8.5,0,0,1-8.4-1.6,107.6,107.6,0,0,1-9.6-9.5A11.3,11.3,0,0,1,8,.4,19.3,19.3,0,0,1,12.1.1c.8.7.5,1.4.3,2.3L9,3.1C2.6,5,1.3,12.6,4.6,16.3s6.2,6.3,9.3,9.4A4.9,4.9,0,0,0,18.7,26.9Z" style="fill: #0268fa"/>
        <path d="M6.4,11c2.8-2.8,5.4-5.4,8.1-7.9A11.3,11.3,0,0,1,33.4,9.4,9.9,9.9,0,0,1,31.2,18a3.8,3.8,0,0,1-2.1-1.3,7.8,7.8,0,0,1,.9-2.1A8.3,8.3,0,0,0,23.8,3a7.9,7.9,0,0,0-6.2,1.2L14.9,6.6l-4.4,4.5c2.2.8,3.8.5,5.1-.9l3.6-3.4c1.3-.2,1.6.9,2.4,1.4-2.5,2.5-4.5,5.6-8.2,6.2S8.5,13.4,6.4,11Z" style="fill: #0368fa"/>
      </g>
    </g>
  </g>
</svg>
