<svg xmlns="http://www.w3.org/2000/svg" width="23.4" height="21" viewBox="0 0 23.4 21">
  <title>Risorsa 15icon13</title>
  <g id="Livello_2" data-name="Livello 2">
    <g id="Livello_1-2" data-name="Livello 1">
      <g>
        <path d="M15.2,0C15.8.9,17,3,17,3h4.9c1.4.3,1.5.9,1.5,2.2,0,3.7,0,8.3-.1,12S22.5,21,19.4,21H3.4C.8,21,.1,21,0,17.9S0,8.2.1,4.4C.1,3.5.4,3,1.7,3H6.1L8.2,0Zm6.2,19.1V5H15.6L14,1.7H9.1L7.2,5H1.9v14Z" style="fill: #060406"/>
        <path d="M11.8,5.8a5.5,5.5,0,0,1,5.6,5.7,5.8,5.8,0,0,1-5.7,5.8,5.8,5.8,0,0,1-5.7-6A5.5,5.5,0,0,1,11.8,5.8Zm0,9.6a3.9,3.9,0,0,0,3.8-4.1,3.9,3.9,0,0,0-4.2-3.7,3.8,3.8,0,0,0-3.6,3.9A3.9,3.9,0,0,0,11.8,15.4Z" style="fill: #0c080b"/>
      </g>
      <circle cx="3.9" cy="6.7" r="0.8" style="fill: #442c43"/>
    </g>
  </g>
</svg>
